# xmcd
#
# Track frame offsets:
#	150
#	15375
#	39965
#	57192
#	75807
#	91982
#	113165
#	134730
#	156230
#	173947
#
# Disc length: 2469 seconds
# Revision: 4
# Processed by: cddbd v1.5.2PL0 Copyright (c) Steve Scherf et al.
# Submitted via: dBpowerAMP V12.0
#
DISCID=7009a30a
DTITLE=Canned Heat and John Lee Hooker - Hooker 'N Heat [MFSL UDCD 2-676]
DYEAR=1971
DGENRE=Blues
TTITLE0=Messin' With The Hook
TTITLE1=The Feelin' Is Gone
TTITLE2=Send Me Your Pillow
TTITLE3=Sittin' Here Thinkin'
TTITLE4=Meet Me In The Bottom
TTITLE5=Alimonia Blues
TTITLE6=Drifter
TTITLE7=You Talk Too Much
TTITLE8=Burning Hell
TTITLE9=Bottle Up And Go
EXTD=
EXTT0=
EXTT1=
EXTT2=
EXTT3=
EXTT4=
EXTT5=
EXTT6=
EXTT7=
EXTT8=
EXTT9=
PLAYORDER=
